<svg id="visual" viewBox="0 0 900 600" width="900" height="600" xmlns="http://www.w3.org/2000/svg" xmlns:xlink="http://www.w3.org/1999/xlink" version="1.1"><rect x="0" y="0" width="900" height="600" fill="#001845"></rect><path d="M0 414L16.7 419.5C33.3 425 66.7 436 100 436.5C133.3 437 166.7 427 200 420.3C233.3 413.7 266.7 410.3 300 418.3C333.3 426.3 366.7 445.7 400 455.3C433.3 465 466.7 465 500 463.3C533.3 461.7 566.7 458.3 600 458.2C633.3 458 666.7 461 700 458.7C733.3 456.3 766.7 448.7 800 441.7C833.3 434.7 866.7 428.3 883.3 425.2L900 422L900 601L883.3 601C866.7 601 833.3 601 800 601C766.7 601 733.3 601 700 601C666.7 601 633.3 601 600 601C566.7 601 533.3 601 500 601C466.7 601 433.3 601 400 601C366.7 601 333.3 601 300 601C266.7 601 233.3 601 200 601C166.7 601 133.3 601 100 601C66.7 601 33.3 601 16.7 601L0 601Z" fill="#007fff"></path><path d="M0 463L16.7 462.7C33.3 462.3 66.7 461.7 100 461.7C133.3 461.7 166.7 462.3 200 460.2C233.3 458 266.7 453 300 450.8C333.3 448.7 366.7 449.3 400 453.5C433.3 457.7 466.7 465.3 500 466.3C533.3 467.3 566.7 461.7 600 464C633.3 466.3 666.7 476.7 700 478.8C733.3 481 766.7 475 800 471.7C833.3 468.3 866.7 467.7 883.3 467.3L900 467L900 601L883.3 601C866.7 601 833.3 601 800 601C766.7 601 733.3 601 700 601C666.7 601 633.3 601 600 601C566.7 601 533.3 601 500 601C466.7 601 433.3 601 400 601C366.7 601 333.3 601 300 601C266.7 601 233.3 601 200 601C166.7 601 133.3 601 100 601C66.7 601 33.3 601 16.7 601L0 601Z" fill="#0671e7"></path><path d="M0 492L16.7 489.5C33.3 487 66.7 482 100 478.8C133.3 475.7 166.7 474.3 200 479.5C233.3 484.7 266.7 496.3 300 495.5C333.3 494.7 366.7 481.3 400 475C433.3 468.7 466.7 469.3 500 473.3C533.3 477.3 566.7 484.7 600 486.5C633.3 488.3 666.7 484.7 700 486.2C733.3 487.7 766.7 494.3 800 499C833.3 503.7 866.7 506.3 883.3 507.7L900 509L900 601L883.3 601C866.7 601 833.3 601 800 601C766.7 601 733.3 601 700 601C666.7 601 633.3 601 600 601C566.7 601 533.3 601 500 601C466.7 601 433.3 601 400 601C366.7 601 333.3 601 300 601C266.7 601 233.3 601 200 601C166.7 601 133.3 601 100 601C66.7 601 33.3 601 16.7 601L0 601Z" fill="#0764cf"></path><path d="M0 506L16.7 505.2C33.3 504.3 66.7 502.7 100 506C133.3 509.3 166.7 517.7 200 522.3C233.3 527 266.7 528 300 522.8C333.3 517.7 366.7 506.3 400 504.7C433.3 503 466.7 511 500 513.2C533.3 515.3 566.7 511.7 600 507.8C633.3 504 666.7 500 700 503.2C733.3 506.3 766.7 516.7 800 520.7C833.3 524.7 866.7 522.3 883.3 521.2L900 520L900 601L883.3 601C866.7 601 833.3 601 800 601C766.7 601 733.3 601 700 601C666.7 601 633.3 601 600 601C566.7 601 533.3 601 500 601C466.7 601 433.3 601 400 601C366.7 601 333.3 601 300 601C266.7 601 233.3 601 200 601C166.7 601 133.3 601 100 601C66.7 601 33.3 601 16.7 601L0 601Z" fill="#0657b7"></path><path d="M0 524L16.7 528.8C33.3 533.7 66.7 543.3 100 546.5C133.3 549.7 166.7 546.3 200 544.7C233.3 543 266.7 543 300 541.2C333.3 539.3 366.7 535.7 400 537.8C433.3 540 466.7 548 500 548.3C533.3 548.7 566.7 541.3 600 541.2C633.3 541 666.7 548 700 549.5C733.3 551 766.7 547 800 543.8C833.3 540.7 866.7 538.3 883.3 537.2L900 536L900 601L883.3 601C866.7 601 833.3 601 800 601C766.7 601 733.3 601 700 601C666.7 601 633.3 601 600 601C566.7 601 533.3 601 500 601C466.7 601 433.3 601 400 601C366.7 601 333.3 601 300 601C266.7 601 233.3 601 200 601C166.7 601 133.3 601 100 601C66.7 601 33.3 601 16.7 601L0 601Z" fill="#044aa0"></path><path d="M0 568L16.7 567.8C33.3 567.7 66.7 567.3 100 566.8C133.3 566.3 166.7 565.7 200 564C233.3 562.3 266.7 559.7 300 561.5C333.3 563.3 366.7 569.7 400 571C433.3 572.3 466.7 568.7 500 567C533.3 565.3 566.7 565.7 600 565.3C633.3 565 666.7 564 700 561.8C733.3 559.7 766.7 556.3 800 557.2C833.3 558 866.7 563 883.3 565.5L900 568L900 601L883.3 601C866.7 601 833.3 601 800 601C766.7 601 733.3 601 700 601C666.7 601 633.3 601 600 601C566.7 601 533.3 601 500 601C466.7 601 433.3 601 400 601C366.7 601 333.3 601 300 601C266.7 601 233.3 601 200 601C166.7 601 133.3 601 100 601C66.7 601 33.3 601 16.7 601L0 601Z" fill="#023e8a"></path></svg>